<mxfile host="app.diagrams.net" modified="2023-09-29T10:07:11.326Z" agent="Mozilla/5.0 (X11; Linux x86_64) AppleWebKit/537.36 (KHTML, like Gecko) Chrome/114.0.0.0 Safari/537.36" etag="Jmoto7PoVZKSEhx6UF0n" version="21.8.2" type="device">
  <diagram name="PÃ¡gina-1" id="b4wMb9o5UJWhEgCB0x2X">
    <mxGraphModel dx="2876" dy="1017" grid="1" gridSize="10" guides="1" tooltips="1" connect="1" arrows="1" fold="1" page="1" pageScale="1" pageWidth="827" pageHeight="1169" math="0" shadow="0">
      <root>
        <mxCell id="0" />
        <mxCell id="1" parent="0" />
        <mxCell id="8V_Fvuz6eneKWts8hAFH-17" style="edgeStyle=orthogonalEdgeStyle;rounded=0;orthogonalLoop=1;jettySize=auto;html=1;exitX=0.5;exitY=1;exitDx=0;exitDy=0;entryX=0.5;entryY=0;entryDx=0;entryDy=0;" parent="1" source="8V_Fvuz6eneKWts8hAFH-1" target="8V_Fvuz6eneKWts8hAFH-16" edge="1">
          <mxGeometry relative="1" as="geometry" />
        </mxCell>
        <mxCell id="8V_Fvuz6eneKWts8hAFH-1" value="INICIO" style="rounded=1;whiteSpace=wrap;html=1;" parent="1" vertex="1">
          <mxGeometry x="300" y="20" width="120" height="60" as="geometry" />
        </mxCell>
        <mxCell id="sLzsEPnlxNj9XMc3CRMM-13" style="edgeStyle=orthogonalEdgeStyle;rounded=0;orthogonalLoop=1;jettySize=auto;html=1;exitX=0.5;exitY=1;exitDx=0;exitDy=0;entryX=0.5;entryY=0;entryDx=0;entryDy=0;" edge="1" parent="1" source="8V_Fvuz6eneKWts8hAFH-16" target="8V_Fvuz6eneKWts8hAFH-18">
          <mxGeometry relative="1" as="geometry" />
        </mxCell>
        <mxCell id="8V_Fvuz6eneKWts8hAFH-16" value="&lt;div&gt;:ESCRIBIR:Metros a Pies&amp;nbsp;&lt;/div&gt;&lt;div&gt;&amp;nbsp;2: Pies a Pulgadas&amp;nbsp;&lt;/div&gt;&lt;div&gt;&amp;nbsp;3: Metros a Pulgadas&amp;nbsp;&lt;/div&gt;" style="shape=parallelogram;perimeter=parallelogramPerimeter;whiteSpace=wrap;html=1;fixedSize=1;" parent="1" vertex="1">
          <mxGeometry x="300" y="120" width="120" height="60" as="geometry" />
        </mxCell>
        <mxCell id="sLzsEPnlxNj9XMc3CRMM-14" style="edgeStyle=orthogonalEdgeStyle;rounded=0;orthogonalLoop=1;jettySize=auto;html=1;exitX=0.5;exitY=1;exitDx=0;exitDy=0;entryX=0.5;entryY=0;entryDx=0;entryDy=0;" edge="1" parent="1" source="8V_Fvuz6eneKWts8hAFH-18" target="8V_Fvuz6eneKWts8hAFH-21">
          <mxGeometry relative="1" as="geometry" />
        </mxCell>
        <mxCell id="8V_Fvuz6eneKWts8hAFH-18" value="LEER opcion" style="shape=parallelogram;perimeter=parallelogramPerimeter;whiteSpace=wrap;html=1;fixedSize=1;" parent="1" vertex="1">
          <mxGeometry x="300" y="230" width="120" height="60" as="geometry" />
        </mxCell>
        <mxCell id="8V_Fvuz6eneKWts8hAFH-32" style="edgeStyle=orthogonalEdgeStyle;rounded=0;orthogonalLoop=1;jettySize=auto;html=1;exitX=0.5;exitY=1;exitDx=0;exitDy=0;" parent="1" source="8V_Fvuz6eneKWts8hAFH-21" edge="1">
          <mxGeometry relative="1" as="geometry">
            <mxPoint x="360" y="530" as="targetPoint" />
            <Array as="points">
              <mxPoint x="360" y="480" />
              <mxPoint x="361" y="530" />
            </Array>
          </mxGeometry>
        </mxCell>
        <mxCell id="8V_Fvuz6eneKWts8hAFH-33" value="op2" style="edgeLabel;html=1;align=center;verticalAlign=middle;resizable=0;points=[];" parent="8V_Fvuz6eneKWts8hAFH-32" vertex="1" connectable="0">
          <mxGeometry x="0.5187" y="-1" relative="1" as="geometry">
            <mxPoint x="11" y="47" as="offset" />
          </mxGeometry>
        </mxCell>
        <mxCell id="8V_Fvuz6eneKWts8hAFH-21" value="opcion" style="rhombus;whiteSpace=wrap;html=1;" parent="1" vertex="1">
          <mxGeometry x="320" y="350" width="80" height="80" as="geometry" />
        </mxCell>
        <mxCell id="8V_Fvuz6eneKWts8hAFH-35" value="" style="edgeStyle=orthogonalEdgeStyle;rounded=0;orthogonalLoop=1;jettySize=auto;html=1;entryX=0.5;entryY=0;entryDx=0;entryDy=0;" parent="1" edge="1">
          <mxGeometry relative="1" as="geometry">
            <mxPoint x="345" y="485.0588235294117" as="sourcePoint" />
            <mxPoint x="130" y="600" as="targetPoint" />
          </mxGeometry>
        </mxCell>
        <mxCell id="8V_Fvuz6eneKWts8hAFH-38" value="" style="edgeStyle=orthogonalEdgeStyle;rounded=0;orthogonalLoop=1;jettySize=auto;html=1;" parent="1" edge="1">
          <mxGeometry relative="1" as="geometry">
            <mxPoint x="360" y="500" as="sourcePoint" />
            <mxPoint x="360.0588235294117" y="600" as="targetPoint" />
          </mxGeometry>
        </mxCell>
        <mxCell id="8V_Fvuz6eneKWts8hAFH-40" value="" style="edgeStyle=orthogonalEdgeStyle;rounded=0;orthogonalLoop=1;jettySize=auto;html=1;entryX=0.5;entryY=0;entryDx=0;entryDy=0;exitX=1.051;exitY=0.596;exitDx=0;exitDy=0;exitPerimeter=0;" parent="1" edge="1">
          <mxGeometry relative="1" as="geometry">
            <mxPoint x="376.5300000000002" y="487.8800000000001" as="sourcePoint" />
            <mxPoint x="600" y="600" as="targetPoint" />
          </mxGeometry>
        </mxCell>
        <mxCell id="8V_Fvuz6eneKWts8hAFH-41" value="" style="edgeStyle=orthogonalEdgeStyle;rounded=0;orthogonalLoop=1;jettySize=auto;html=1;" parent="1" edge="1">
          <mxGeometry relative="1" as="geometry">
            <mxPoint x="360" y="470" as="sourcePoint" />
            <mxPoint x="360.0588235294117" y="500" as="targetPoint" />
          </mxGeometry>
        </mxCell>
        <mxCell id="8V_Fvuz6eneKWts8hAFH-43" value="op1" style="text;html=1;align=center;verticalAlign=middle;resizable=0;points=[];autosize=1;strokeColor=none;fillColor=none;" parent="1" vertex="1">
          <mxGeometry x="130" y="548" width="40" height="30" as="geometry" />
        </mxCell>
        <mxCell id="8V_Fvuz6eneKWts8hAFH-44" value="op3" style="text;html=1;align=center;verticalAlign=middle;resizable=0;points=[];autosize=1;strokeColor=none;fillColor=none;" parent="1" vertex="1">
          <mxGeometry x="600" y="548" width="40" height="30" as="geometry" />
        </mxCell>
        <mxCell id="sLzsEPnlxNj9XMc3CRMM-6" style="edgeStyle=orthogonalEdgeStyle;rounded=0;orthogonalLoop=1;jettySize=auto;html=1;exitX=0.5;exitY=1;exitDx=0;exitDy=0;entryX=0.5;entryY=0;entryDx=0;entryDy=0;" edge="1" parent="1" source="8V_Fvuz6eneKWts8hAFH-45" target="8V_Fvuz6eneKWts8hAFH-51">
          <mxGeometry relative="1" as="geometry" />
        </mxCell>
        <mxCell id="8V_Fvuz6eneKWts8hAFH-45" value="ESCRIBIR: metros a pulgadas" style="shape=parallelogram;perimeter=parallelogramPerimeter;whiteSpace=wrap;html=1;fixedSize=1;" parent="1" vertex="1">
          <mxGeometry x="530" y="600" width="120" height="60" as="geometry" />
        </mxCell>
        <mxCell id="sLzsEPnlxNj9XMc3CRMM-5" style="edgeStyle=orthogonalEdgeStyle;rounded=0;orthogonalLoop=1;jettySize=auto;html=1;exitX=0.5;exitY=1;exitDx=0;exitDy=0;entryX=0.5;entryY=0;entryDx=0;entryDy=0;" edge="1" parent="1" source="8V_Fvuz6eneKWts8hAFH-46" target="8V_Fvuz6eneKWts8hAFH-52">
          <mxGeometry relative="1" as="geometry" />
        </mxCell>
        <mxCell id="8V_Fvuz6eneKWts8hAFH-46" value="ESCRIBIR: pies a pulgadas" style="shape=parallelogram;perimeter=parallelogramPerimeter;whiteSpace=wrap;html=1;fixedSize=1;" parent="1" vertex="1">
          <mxGeometry x="300" y="600" width="120" height="60" as="geometry" />
        </mxCell>
        <mxCell id="sLzsEPnlxNj9XMc3CRMM-4" style="edgeStyle=orthogonalEdgeStyle;rounded=0;orthogonalLoop=1;jettySize=auto;html=1;exitX=0.5;exitY=1;exitDx=0;exitDy=0;entryX=0.5;entryY=0;entryDx=0;entryDy=0;" edge="1" parent="1" source="8V_Fvuz6eneKWts8hAFH-47" target="8V_Fvuz6eneKWts8hAFH-53">
          <mxGeometry relative="1" as="geometry" />
        </mxCell>
        <mxCell id="8V_Fvuz6eneKWts8hAFH-47" value="ESCRIBIR metros a pies" style="shape=parallelogram;perimeter=parallelogramPerimeter;whiteSpace=wrap;html=1;fixedSize=1;" parent="1" vertex="1">
          <mxGeometry x="70" y="600" width="120" height="60" as="geometry" />
        </mxCell>
        <mxCell id="8V_Fvuz6eneKWts8hAFH-48" value="pulgadas=metros*39.3701;" style="rounded=0;whiteSpace=wrap;html=1;" parent="1" vertex="1">
          <mxGeometry x="530" y="800" width="120" height="60" as="geometry" />
        </mxCell>
        <mxCell id="8V_Fvuz6eneKWts8hAFH-49" value="&lt;div style=&quot;background-color:#1e1f22;color:#bcbec4&quot;&gt;&lt;pre style=&quot;font-family:&#39;JetBrains Mono&#39;,monospace;font-size:9,8pt;&quot;&gt;pulgadas=pies*12;&lt;/pre&gt;&lt;/div&gt;" style="rounded=0;whiteSpace=wrap;html=1;" parent="1" vertex="1">
          <mxGeometry x="293.5" y="800" width="120" height="60" as="geometry" />
        </mxCell>
        <mxCell id="sLzsEPnlxNj9XMc3CRMM-10" style="edgeStyle=orthogonalEdgeStyle;rounded=0;orthogonalLoop=1;jettySize=auto;html=1;exitX=0.5;exitY=1;exitDx=0;exitDy=0;" edge="1" parent="1" source="8V_Fvuz6eneKWts8hAFH-50" target="sLzsEPnlxNj9XMc3CRMM-1">
          <mxGeometry relative="1" as="geometry" />
        </mxCell>
        <mxCell id="8V_Fvuz6eneKWts8hAFH-50" value="&lt;div style=&quot;background-color:#1e1f22;color:#bcbec4&quot;&gt;&lt;pre style=&quot;font-family:&#39;JetBrains Mono&#39;,monospace;font-size:9,8pt;&quot;&gt;pies=metros*3.28084;&lt;/pre&gt;&lt;/div&gt;" style="rounded=0;whiteSpace=wrap;html=1;" parent="1" vertex="1">
          <mxGeometry x="60" y="800" width="120" height="60" as="geometry" />
        </mxCell>
        <mxCell id="sLzsEPnlxNj9XMc3CRMM-7" style="edgeStyle=orthogonalEdgeStyle;rounded=0;orthogonalLoop=1;jettySize=auto;html=1;exitX=0.5;exitY=1;exitDx=0;exitDy=0;entryX=0.5;entryY=0;entryDx=0;entryDy=0;" edge="1" parent="1" source="8V_Fvuz6eneKWts8hAFH-51" target="8V_Fvuz6eneKWts8hAFH-48">
          <mxGeometry relative="1" as="geometry" />
        </mxCell>
        <mxCell id="8V_Fvuz6eneKWts8hAFH-51" value="LEER:METROS" style="shape=parallelogram;perimeter=parallelogramPerimeter;whiteSpace=wrap;html=1;fixedSize=1;" parent="1" vertex="1">
          <mxGeometry x="530" y="690" width="120" height="60" as="geometry" />
        </mxCell>
        <mxCell id="sLzsEPnlxNj9XMc3CRMM-12" style="edgeStyle=orthogonalEdgeStyle;rounded=0;orthogonalLoop=1;jettySize=auto;html=1;exitX=0.5;exitY=1;exitDx=0;exitDy=0;entryX=0.5;entryY=0;entryDx=0;entryDy=0;" edge="1" parent="1" source="8V_Fvuz6eneKWts8hAFH-52" target="8V_Fvuz6eneKWts8hAFH-49">
          <mxGeometry relative="1" as="geometry" />
        </mxCell>
        <mxCell id="8V_Fvuz6eneKWts8hAFH-52" value="LEER pies" style="shape=parallelogram;perimeter=parallelogramPerimeter;whiteSpace=wrap;html=1;fixedSize=1;" parent="1" vertex="1">
          <mxGeometry x="300" y="700" width="120" height="60" as="geometry" />
        </mxCell>
        <mxCell id="8V_Fvuz6eneKWts8hAFH-53" value="LEER metros" style="shape=parallelogram;perimeter=parallelogramPerimeter;whiteSpace=wrap;html=1;fixedSize=1;" parent="1" vertex="1">
          <mxGeometry x="70" y="700" width="120" height="60" as="geometry" />
        </mxCell>
        <mxCell id="sLzsEPnlxNj9XMc3CRMM-16" style="edgeStyle=orthogonalEdgeStyle;rounded=0;orthogonalLoop=1;jettySize=auto;html=1;exitX=0.5;exitY=1;exitDx=0;exitDy=0;entryX=0;entryY=0.75;entryDx=0;entryDy=0;" edge="1" parent="1" source="sLzsEPnlxNj9XMc3CRMM-1" target="sLzsEPnlxNj9XMc3CRMM-15">
          <mxGeometry relative="1" as="geometry" />
        </mxCell>
        <mxCell id="sLzsEPnlxNj9XMc3CRMM-1" value="ESCRIBIR:Resultado" style="shape=parallelogram;perimeter=parallelogramPerimeter;whiteSpace=wrap;html=1;fixedSize=1;" vertex="1" parent="1">
          <mxGeometry x="60" y="910" width="120" height="60" as="geometry" />
        </mxCell>
        <mxCell id="sLzsEPnlxNj9XMc3CRMM-18" style="edgeStyle=orthogonalEdgeStyle;rounded=0;orthogonalLoop=1;jettySize=auto;html=1;exitX=0.5;exitY=1;exitDx=0;exitDy=0;entryX=1;entryY=0.5;entryDx=0;entryDy=0;" edge="1" parent="1" source="sLzsEPnlxNj9XMc3CRMM-2" target="sLzsEPnlxNj9XMc3CRMM-15">
          <mxGeometry relative="1" as="geometry" />
        </mxCell>
        <mxCell id="sLzsEPnlxNj9XMc3CRMM-2" value="ESCRIBIR:Resultado" style="shape=parallelogram;perimeter=parallelogramPerimeter;whiteSpace=wrap;html=1;fixedSize=1;" vertex="1" parent="1">
          <mxGeometry x="520" y="920" width="120" height="60" as="geometry" />
        </mxCell>
        <mxCell id="sLzsEPnlxNj9XMc3CRMM-17" style="edgeStyle=orthogonalEdgeStyle;rounded=0;orthogonalLoop=1;jettySize=auto;html=1;exitX=0.5;exitY=1;exitDx=0;exitDy=0;entryX=0.5;entryY=0;entryDx=0;entryDy=0;" edge="1" parent="1" source="sLzsEPnlxNj9XMc3CRMM-3" target="sLzsEPnlxNj9XMc3CRMM-15">
          <mxGeometry relative="1" as="geometry" />
        </mxCell>
        <mxCell id="sLzsEPnlxNj9XMc3CRMM-3" value="ESCRIBIR:Resultado" style="shape=parallelogram;perimeter=parallelogramPerimeter;whiteSpace=wrap;html=1;fixedSize=1;" vertex="1" parent="1">
          <mxGeometry x="300" y="920" width="120" height="60" as="geometry" />
        </mxCell>
        <mxCell id="sLzsEPnlxNj9XMc3CRMM-8" style="edgeStyle=orthogonalEdgeStyle;rounded=0;orthogonalLoop=1;jettySize=auto;html=1;exitX=0.5;exitY=1;exitDx=0;exitDy=0;entryX=0.583;entryY=0;entryDx=0;entryDy=0;entryPerimeter=0;" edge="1" parent="1" source="8V_Fvuz6eneKWts8hAFH-48" target="sLzsEPnlxNj9XMc3CRMM-2">
          <mxGeometry relative="1" as="geometry" />
        </mxCell>
        <mxCell id="sLzsEPnlxNj9XMc3CRMM-9" style="edgeStyle=orthogonalEdgeStyle;rounded=0;orthogonalLoop=1;jettySize=auto;html=1;exitX=0.5;exitY=1;exitDx=0;exitDy=0;entryX=0.45;entryY=0.167;entryDx=0;entryDy=0;entryPerimeter=0;" edge="1" parent="1" source="8V_Fvuz6eneKWts8hAFH-49" target="sLzsEPnlxNj9XMc3CRMM-3">
          <mxGeometry relative="1" as="geometry" />
        </mxCell>
        <mxCell id="sLzsEPnlxNj9XMc3CRMM-11" style="edgeStyle=orthogonalEdgeStyle;rounded=0;orthogonalLoop=1;jettySize=auto;html=1;exitX=0.5;exitY=1;exitDx=0;exitDy=0;entryX=0.567;entryY=0.033;entryDx=0;entryDy=0;entryPerimeter=0;" edge="1" parent="1" source="8V_Fvuz6eneKWts8hAFH-53" target="8V_Fvuz6eneKWts8hAFH-50">
          <mxGeometry relative="1" as="geometry" />
        </mxCell>
        <mxCell id="sLzsEPnlxNj9XMc3CRMM-15" value="Fin" style="rounded=1;whiteSpace=wrap;html=1;" vertex="1" parent="1">
          <mxGeometry x="300" y="1060" width="120" height="60" as="geometry" />
        </mxCell>
        <mxCell id="sLzsEPnlxNj9XMc3CRMM-26" style="edgeStyle=orthogonalEdgeStyle;rounded=0;orthogonalLoop=1;jettySize=auto;html=1;exitX=0.5;exitY=1;exitDx=0;exitDy=0;entryX=0.5;entryY=0;entryDx=0;entryDy=0;" edge="1" parent="1" source="sLzsEPnlxNj9XMc3CRMM-19" target="sLzsEPnlxNj9XMc3CRMM-21">
          <mxGeometry relative="1" as="geometry" />
        </mxCell>
        <mxCell id="sLzsEPnlxNj9XMc3CRMM-19" value="inicio" style="rounded=1;whiteSpace=wrap;html=1;" vertex="1" parent="1">
          <mxGeometry x="-473" y="80" width="120" height="60" as="geometry" />
        </mxCell>
        <mxCell id="sLzsEPnlxNj9XMc3CRMM-27" style="edgeStyle=orthogonalEdgeStyle;rounded=0;orthogonalLoop=1;jettySize=auto;html=1;exitX=0.5;exitY=1;exitDx=0;exitDy=0;entryX=0.5;entryY=0;entryDx=0;entryDy=0;" edge="1" parent="1" source="sLzsEPnlxNj9XMc3CRMM-21" target="sLzsEPnlxNj9XMc3CRMM-22">
          <mxGeometry relative="1" as="geometry" />
        </mxCell>
        <mxCell id="sLzsEPnlxNj9XMc3CRMM-21" value="ESCRUIBE:&quot;Escribe el valor a,b y c&quot;" style="shape=parallelogram;perimeter=parallelogramPerimeter;whiteSpace=wrap;html=1;fixedSize=1;" vertex="1" parent="1">
          <mxGeometry x="-473" y="220" width="120" height="60" as="geometry" />
        </mxCell>
        <mxCell id="sLzsEPnlxNj9XMc3CRMM-28" style="edgeStyle=orthogonalEdgeStyle;rounded=0;orthogonalLoop=1;jettySize=auto;html=1;exitX=0.5;exitY=1;exitDx=0;exitDy=0;entryX=0.5;entryY=0;entryDx=0;entryDy=0;" edge="1" parent="1" source="sLzsEPnlxNj9XMc3CRMM-22" target="sLzsEPnlxNj9XMc3CRMM-23">
          <mxGeometry relative="1" as="geometry" />
        </mxCell>
        <mxCell id="sLzsEPnlxNj9XMc3CRMM-22" value="LLER: a, b y c" style="shape=parallelogram;perimeter=parallelogramPerimeter;whiteSpace=wrap;html=1;fixedSize=1;" vertex="1" parent="1">
          <mxGeometry x="-473" y="340" width="120" height="60" as="geometry" />
        </mxCell>
        <mxCell id="sLzsEPnlxNj9XMc3CRMM-29" style="edgeStyle=orthogonalEdgeStyle;rounded=0;orthogonalLoop=1;jettySize=auto;html=1;exitX=0.5;exitY=1;exitDx=0;exitDy=0;entryX=0.5;entryY=0;entryDx=0;entryDy=0;" edge="1" parent="1" source="sLzsEPnlxNj9XMc3CRMM-23" target="sLzsEPnlxNj9XMc3CRMM-24">
          <mxGeometry relative="1" as="geometry" />
        </mxCell>
        <mxCell id="sLzsEPnlxNj9XMc3CRMM-23" value="&lt;div style=&quot;margin: 0px; padding: 0px; user-select: text; -webkit-user-drag: none; -webkit-tap-highlight-color: transparent; overflow: visible; cursor: text; clear: both; position: relative; direction: ltr; font-family: &amp;quot;Segoe UI&amp;quot;, &amp;quot;Segoe UI Web&amp;quot;, Arial, Verdana, sans-serif; text-align: start; background-color: rgb(255, 255, 255);&quot; class=&quot;OutlineElement Ltr SCXW193826012 BCX0&quot;&gt;&lt;p style=&quot;margin: 0px 0px 0px 47px; padding: 0px; user-select: text; -webkit-user-drag: none; -webkit-tap-highlight-color: transparent; overflow-wrap: break-word; vertical-align: baseline; font-kerning: none; background-color: transparent; color: windowtext; text-indent: 47px;&quot; lang=&quot;ES-ES&quot; class=&quot;Paragraph SCXW193826012 BCX0&quot;&gt;d=a&lt;span style=&quot;margin: 0px; padding: 0px; user-select: text; -webkit-user-drag: none; -webkit-tap-highlight-color: transparent; font-size: 11pt; line-height: 18.3458px; font-family: Calibri, Calibri_EmbeddedFont, Calibri_MSFontService, sans-serif;&quot; data-ccp-props=&quot;{&amp;quot;201341983&amp;quot;:0,&amp;quot;335559685&amp;quot;:708,&amp;quot;335559731&amp;quot;:708,&amp;quot;335559739&amp;quot;:160,&amp;quot;335559740&amp;quot;:259}&quot; class=&quot;EOP SCXW193826012 BCX0&quot;&gt;&amp;nbsp;&lt;/span&gt;&lt;/p&gt;&lt;/div&gt;&lt;div style=&quot;margin: 0px; padding: 0px; user-select: text; -webkit-user-drag: none; -webkit-tap-highlight-color: transparent; overflow: visible; cursor: text; clear: both; position: relative; direction: ltr; font-family: &amp;quot;Segoe UI&amp;quot;, &amp;quot;Segoe UI Web&amp;quot;, Arial, Verdana, sans-serif; text-align: start; background-color: rgb(255, 255, 255);&quot; class=&quot;OutlineElement Ltr SCXW193826012 BCX0&quot;&gt;&lt;p style=&quot;margin: 0px 0px 0px 47px; padding: 0px; user-select: text; -webkit-user-drag: none; -webkit-tap-highlight-color: transparent; overflow-wrap: break-word; vertical-align: baseline; font-kerning: none; background-color: transparent; color: windowtext; text-indent: 47px;&quot; lang=&quot;ES-ES&quot; class=&quot;Paragraph SCXW193826012 BCX0&quot;&gt;&lt;span style=&quot;margin: 0px; padding: 0px; user-select: text; -webkit-user-drag: none; -webkit-tap-highlight-color: transparent; font-variant-ligatures: none !important; font-size: 11pt; line-height: 18.3458px; font-family: Calibri, Calibri_EmbeddedFont, Calibri_MSFontService, sans-serif;&quot; class=&quot;TextRun SCXW193826012 BCX0&quot; lang=&quot;ES-ES&quot; data-contrast=&quot;auto&quot;&gt;&lt;span style=&quot;margin: 0px; padding: 0px; user-select: text; -webkit-user-drag: none; -webkit-tap-highlight-color: transparent; background-repeat: repeat-x; background-position: left bottom; background-image: var(--urlContextualSpellingAndGrammarErrorV2, url(&#39;data:image/svg+xml;base64,PD94bWwgdmVyc2lvbj0iMS4wIiBlbmNvZGluZz0iVVRGLTgiPz4KPHN2ZyB3aWR0aD0iNXB4IiBoZWlnaHQ9IjNweCIgdmlld0JveD0iMCAwIDUgMyIgdmVyc2lvbj0iMS4xIiB4bWxucz0iaHR0cDovL3d3dy53My5vcmcvMjAwMC9zdmciIHhtbG5zOnhsaW5rPSJodHRwOi8vd3d3LnczLm9yZy8xOTk5L3hsaW5rIj4KICAgIDwhLS0gR2VuZXJhdG9yOiBTa2V0Y2ggNTUuMiAoNzgxODEpIC0gaHR0cHM6Ly9za2V0Y2hhcHAuY29tIC0tPgogICAgPHRpdGxlPmdyYW1tYXJfZG91YmxlX2xpbmU8L3RpdGxlPgogICAgPGRlc2M+Q3JlYXRlZCB3aXRoIFNrZXRjaC48L2Rlc2M+CiAgICA8ZyBpZD0iZ3JhbW1hcl9kb3VibGVfbGluZSIgc3Ryb2tlPSJub25lIiBzdHJva2Utd2lkdGg9IjEiIGZpbGw9Im5vbmUiIGZpbGwtcnVsZT0iZXZlbm9kZCIgc3Ryb2tlLWxpbmVjYXA9InJvdW5kIj4KICAgICAgICA8ZyBpZD0iR3JhbW1hci1UaWxlLUNvcHkiIHN0cm9rZT0iIzMzNTVGRiI+CiAgICAgICAgICAgIDxwYXRoIGQ9Ik0wLDAuNSBMNSwwLjUiIGlkPSJMaW5lLTItQ29weS0xMCI+PC9wYXRoPgogICAgICAgICAgICA8cGF0aCBkPSJNMCwyLjUgTDUsMi41IiBpZD0iTGluZS0yLUNvcHktMTEiPjwvcGF0aD4KICAgICAgICA8L2c+CiAgICA8L2c+Cjwvc3ZnPg==&#39;)); border-bottom: 1px solid transparent;&quot; class=&quot;NormalTextRun ContextualSpellingAndGrammarErrorV2Themed SCXW193826012 BCX0&quot;&gt;e&lt;/span&gt;&lt;span style=&quot;margin: 0px; padding: 0px; user-select: text; -webkit-user-drag: none; -webkit-tap-highlight-color: transparent;&quot; class=&quot;NormalTextRun SCXW193826012 BCX0&quot;&gt;=b&lt;/span&gt;&lt;/span&gt;&lt;span style=&quot;margin: 0px; padding: 0px; user-select: text; -webkit-user-drag: none; -webkit-tap-highlight-color: transparent; font-size: 11pt; line-height: 18.3458px; font-family: Calibri, Calibri_EmbeddedFont, Calibri_MSFontService, sans-serif;&quot; data-ccp-props=&quot;{&amp;quot;201341983&amp;quot;:0,&amp;quot;335559685&amp;quot;:708,&amp;quot;335559731&amp;quot;:708,&amp;quot;335559739&amp;quot;:160,&amp;quot;335559740&amp;quot;:259}&quot; class=&quot;EOP SCXW193826012 BCX0&quot;&gt;&amp;nbsp;&lt;/span&gt;&lt;/p&gt;&lt;/div&gt;&lt;div style=&quot;margin: 0px; padding: 0px; user-select: text; -webkit-user-drag: none; -webkit-tap-highlight-color: transparent; overflow: visible; cursor: text; clear: both; position: relative; direction: ltr; font-family: &amp;quot;Segoe UI&amp;quot;, &amp;quot;Segoe UI Web&amp;quot;, Arial, Verdana, sans-serif; text-align: start; background-color: rgb(255, 255, 255);&quot; class=&quot;OutlineElement Ltr SCXW193826012 BCX0&quot;&gt;&lt;p style=&quot;margin: 0px 0px 0px 47px; padding: 0px; user-select: text; -webkit-user-drag: none; -webkit-tap-highlight-color: transparent; overflow-wrap: break-word; vertical-align: baseline; font-kerning: none; background-color: transparent; color: windowtext; text-indent: 47px;&quot; lang=&quot;ES-ES&quot; class=&quot;Paragraph SCXW193826012 BCX0&quot;&gt;&lt;span style=&quot;margin: 0px; padding: 0px; user-select: text; -webkit-user-drag: none; -webkit-tap-highlight-color: transparent; font-variant-ligatures: none !important; font-size: 11pt; line-height: 18.3458px; font-family: Calibri, Calibri_EmbeddedFont, Calibri_MSFontService, sans-serif;&quot; class=&quot;TextRun SCXW193826012 BCX0&quot; lang=&quot;ES-ES&quot; data-contrast=&quot;auto&quot;&gt;f=c&lt;/span&gt;&lt;span style=&quot;margin: 0px; padding: 0px; user-select: text; -webkit-user-drag: none; -webkit-tap-highlight-color: transparent; font-size: 11pt; line-height: 18.3458px; font-family: Calibri, Calibri_EmbeddedFont, Calibri_MSFontService, sans-serif;&quot; data-ccp-props=&quot;{&amp;quot;201341983&amp;quot;:0,&amp;quot;335559685&amp;quot;:708,&amp;quot;335559731&amp;quot;:708,&amp;quot;335559739&amp;quot;:160,&amp;quot;335559740&amp;quot;:259}&quot; class=&quot;EOP SCXW193826012 BCX0&quot;&gt;&amp;nbsp;&lt;/span&gt;&lt;/p&gt;&lt;/div&gt;&lt;div style=&quot;margin: 0px; padding: 0px; user-select: text; -webkit-user-drag: none; -webkit-tap-highlight-color: transparent; overflow: visible; cursor: text; clear: both; position: relative; direction: ltr; font-family: &amp;quot;Segoe UI&amp;quot;, &amp;quot;Segoe UI Web&amp;quot;, Arial, Verdana, sans-serif; text-align: start; background-color: rgb(255, 255, 255);&quot; class=&quot;OutlineElement Ltr SCXW193826012 BCX0&quot;&gt;&lt;p style=&quot;margin: 0px 0px 0px 47px; padding: 0px; user-select: text; -webkit-user-drag: none; -webkit-tap-highlight-color: transparent; overflow-wrap: break-word; vertical-align: baseline; font-kerning: none; background-color: transparent; color: windowtext; text-indent: 47px;&quot; lang=&quot;ES-ES&quot; class=&quot;Paragraph SCXW193826012 BCX0&quot;&gt;&lt;span style=&quot;margin: 0px; padding: 0px; user-select: text; -webkit-user-drag: none; -webkit-tap-highlight-color: transparent; font-variant-ligatures: none !important; font-size: 11pt; line-height: 18.3458px; font-family: Calibri, Calibri_EmbeddedFont, Calibri_MSFontService, sans-serif;&quot; class=&quot;TextRun SCXW193826012 BCX0&quot; lang=&quot;ES-ES&quot; data-contrast=&quot;auto&quot;&gt;b=d&lt;/span&gt;&lt;span style=&quot;margin: 0px; padding: 0px; user-select: text; -webkit-user-drag: none; -webkit-tap-highlight-color: transparent; font-size: 11pt; line-height: 18.3458px; font-family: Calibri, Calibri_EmbeddedFont, Calibri_MSFontService, sans-serif;&quot; data-ccp-props=&quot;{&amp;quot;201341983&amp;quot;:0,&amp;quot;335559685&amp;quot;:708,&amp;quot;335559731&amp;quot;:708,&amp;quot;335559739&amp;quot;:160,&amp;quot;335559740&amp;quot;:259}&quot; class=&quot;EOP SCXW193826012 BCX0&quot;&gt;&amp;nbsp;&lt;/span&gt;&lt;/p&gt;&lt;/div&gt;&lt;div style=&quot;margin: 0px; padding: 0px; user-select: text; -webkit-user-drag: none; -webkit-tap-highlight-color: transparent; overflow: visible; cursor: text; clear: both; position: relative; direction: ltr; font-family: &amp;quot;Segoe UI&amp;quot;, &amp;quot;Segoe UI Web&amp;quot;, Arial, Verdana, sans-serif; text-align: start; background-color: rgb(255, 255, 255);&quot; class=&quot;OutlineElement Ltr SCXW193826012 BCX0&quot;&gt;&lt;p style=&quot;margin: 0px 0px 0px 47px; padding: 0px; user-select: text; -webkit-user-drag: none; -webkit-tap-highlight-color: transparent; overflow-wrap: break-word; vertical-align: baseline; font-kerning: none; background-color: transparent; color: windowtext; text-indent: 47px;&quot; lang=&quot;ES-ES&quot; class=&quot;Paragraph SCXW193826012 BCX0&quot;&gt;&lt;span style=&quot;margin: 0px; padding: 0px; user-select: text; -webkit-user-drag: none; -webkit-tap-highlight-color: transparent; font-variant-ligatures: none !important; font-size: 11pt; line-height: 18.3458px; font-family: Calibri, Calibri_EmbeddedFont, Calibri_MSFontService, sans-serif;&quot; class=&quot;TextRun SCXW193826012 BCX0&quot; lang=&quot;ES-ES&quot; data-contrast=&quot;auto&quot;&gt;a=f&lt;/span&gt;&lt;span style=&quot;margin: 0px; padding: 0px; user-select: text; -webkit-user-drag: none; -webkit-tap-highlight-color: transparent; font-size: 11pt; line-height: 18.3458px; font-family: Calibri, Calibri_EmbeddedFont, Calibri_MSFontService, sans-serif;&quot; data-ccp-props=&quot;{&amp;quot;201341983&amp;quot;:0,&amp;quot;335559685&amp;quot;:708,&amp;quot;335559731&amp;quot;:708,&amp;quot;335559739&amp;quot;:160,&amp;quot;335559740&amp;quot;:259}&quot; class=&quot;EOP SCXW193826012 BCX0&quot;&gt;&amp;nbsp;&lt;/span&gt;&lt;/p&gt;&lt;/div&gt;&lt;div style=&quot;margin: 0px; padding: 0px; user-select: text; -webkit-user-drag: none; -webkit-tap-highlight-color: transparent; overflow: visible; cursor: text; clear: both; position: relative; direction: ltr; font-family: &amp;quot;Segoe UI&amp;quot;, &amp;quot;Segoe UI Web&amp;quot;, Arial, Verdana, sans-serif; text-align: start; background-color: rgb(255, 255, 255);&quot; class=&quot;OutlineElement Ltr SCXW193826012 BCX0&quot;&gt;&lt;p style=&quot;margin: 0px 0px 0px 47px; padding: 0px; user-select: text; -webkit-user-drag: none; -webkit-tap-highlight-color: transparent; overflow-wrap: break-word; vertical-align: baseline; font-kerning: none; background-color: transparent; color: windowtext; text-indent: 47px;&quot; lang=&quot;ES-ES&quot; class=&quot;Paragraph SCXW193826012 BCX0&quot;&gt;&lt;span style=&quot;margin: 0px; padding: 0px; user-select: text; -webkit-user-drag: none; -webkit-tap-highlight-color: transparent; font-variant-ligatures: none !important; font-size: 11pt; line-height: 18.3458px; font-family: Calibri, Calibri_EmbeddedFont, Calibri_MSFontService, sans-serif;&quot; class=&quot;TextRun SCXW193826012 BCX0&quot; lang=&quot;ES-ES&quot; data-contrast=&quot;auto&quot;&gt;c=e&lt;/span&gt;&lt;span style=&quot;margin: 0px; padding: 0px; user-select: text; -webkit-user-drag: none; -webkit-tap-highlight-color: transparent; font-size: 11pt; line-height: 18.3458px; font-family: Calibri, Calibri_EmbeddedFont, Calibri_MSFontService, sans-serif;&quot; data-ccp-props=&quot;{&amp;quot;201341983&amp;quot;:0,&amp;quot;335559685&amp;quot;:708,&amp;quot;335559731&amp;quot;:708,&amp;quot;335559739&amp;quot;:160,&amp;quot;335559740&amp;quot;:259}&quot; class=&quot;EOP SCXW193826012 BCX0&quot;&gt;&amp;nbsp;&lt;/span&gt;&lt;/p&gt;&lt;/div&gt;" style="rounded=0;whiteSpace=wrap;html=1;" vertex="1" parent="1">
          <mxGeometry x="-489.5" y="470" width="153" height="160" as="geometry" />
        </mxCell>
        <mxCell id="sLzsEPnlxNj9XMc3CRMM-30" style="edgeStyle=orthogonalEdgeStyle;rounded=0;orthogonalLoop=1;jettySize=auto;html=1;exitX=0.5;exitY=1;exitDx=0;exitDy=0;entryX=0.5;entryY=0;entryDx=0;entryDy=0;" edge="1" parent="1" source="sLzsEPnlxNj9XMc3CRMM-24" target="sLzsEPnlxNj9XMc3CRMM-25">
          <mxGeometry relative="1" as="geometry" />
        </mxCell>
        <mxCell id="sLzsEPnlxNj9XMc3CRMM-24" value="ESCRIBIR a,b y c" style="shape=parallelogram;perimeter=parallelogramPerimeter;whiteSpace=wrap;html=1;fixedSize=1;" vertex="1" parent="1">
          <mxGeometry x="-473" y="710" width="120" height="60" as="geometry" />
        </mxCell>
        <mxCell id="sLzsEPnlxNj9XMc3CRMM-25" value="FIN" style="rounded=1;whiteSpace=wrap;html=1;" vertex="1" parent="1">
          <mxGeometry x="-473" y="870" width="120" height="60" as="geometry" />
        </mxCell>
      </root>
    </mxGraphModel>
  </diagram>
</mxfile>
